<?xml version="1.0" ?><!DOCTYPE svg  PUBLIC '-//W3C//DTD SVG 1.1//EN'  'http://www.w3.org/Graphics/SVG/1.1/DTD/svg11.dtd'><svg xmlns="http://www.w3.org/2000/svg" xmlns:xlink="http://www.w3.org/1999/xlink" version="1.1" id="Layer_1" width="255.172" height="243.535" viewBox="0 0 255.172 243.535" overflow="visible" enable-background="new 0 0 255.172 243.535" xml:space="preserve"><path fill="#D4A17D" d="M167.217,15.05L193,4H56l31.313,11.425C48.604,32.468,27.435,73.536,27.435,121.5  c0,63.234,45.698,114.5,102.069,114.5s102.069-51.266,102.069-114.5C231.573,73.186,204.969,31.863,167.217,15.05z"/><path fill="#BF8C69" d="M168.086,17.713c0,0,49.252,21.248,29.076,81.568c0,0,12.574-12.982,29.158-4.348  C226.32,94.933,215.186,28.926,168.086,17.713z"/><path fill="#BF8C69" d="M88.32,17.713c0,0-49.251,21.248-29.076,81.567c0,0-12.574-12.982-29.158-4.347  C30.086,94.934,41.221,28.926,88.32,17.713z"/><path fill="#BF8C69" d="M82.026,192.395c0,0-17.214-12.793-8.607-48.793c0,0,21.333,12,33.333,0l18.667,30h7.333l22.667-30  c0,0,12.667,10,30,0c0,0,4.888,34.983-8.923,48.793c0,0,18.719-3.912,20.068-12.666c1.349-8.752,3.898-47.744-9.791-61.435H64.991  c0,0-18.107,43.683-6.506,60.828L82.026,192.395z"/><path fill="#BF8C69" d="M129.26,202.268c-51.325,0-93.473-30.297-98.069-84.4c-0.274,3.236-0.422,6.513-0.422,9.826  C30.769,186.404,74.865,234,129.26,234c54.396,0,98.492-47.596,98.492-106.309c0-3.313-0.146-6.589-0.424-9.826  C222.734,171.971,180.585,202.268,129.26,202.268z"/><path fill="#D4A17D" d="M62.629,124.063c0,0-17.831,48.592,8.499,84.365c0,0,5.423,8.62-12.326,0  c-17.749-8.625-80.088-56.656-43.479-103.147c0,0,18.125-19.271,34.793-9.785C61.773,102.131,69.292,115.009,62.629,124.063z"/><path fill="#D4A17D" d="M192.543,124.063c0,0,17.831,48.592-8.499,84.365c0,0-5.424,8.62,12.325,0  c17.75-8.625,80.09-56.656,43.479-103.147c0,0-18.125-19.271-34.793-9.785C193.398,102.131,185.879,115.009,192.543,124.063z"/><path fill="#F0F0FF" d="M157.782,50.323c-12.302,0-23.171,7.066-29.779,17.882c-6.608-10.815-17.479-17.882-29.779-17.882  c-20.147,0-36.48,18.939-36.48,42.302c0,23.362,16.333,42.3,36.48,42.3c12.3,0,23.17-7.065,29.779-17.881  c6.608,10.815,17.479,17.882,29.779,17.882c20.146,0,36.479-18.939,36.479-42.301C194.262,69.262,177.93,50.323,157.782,50.323z"/><ellipse fill="#6E6E96" cx="117.987" cy="87.981" rx="5.787" ry="7.91"/><ellipse fill="#6E6E96" cx="141.343" cy="87.981" rx="5.787" ry="7.91"/><path fill="#FFBF00" d="M106.839,127.283c-0.155,0.938,0.027,1.896,0.515,2.709l18.719,31.236c0.722,1.205,2.022,1.94,3.425,1.942  c1.404,0.002,2.706-0.731,3.432-1.935l18.287-30.327c0.598-0.99,0.736-2.19,0.383-3.294c-0.24-0.743-6.07-18.207-23.597-18.207  C113.602,109.41,107.862,121.102,106.839,127.283z"/><path fill="#D99A00" d="M131.504,112.468v45.705l18.287-30.327C149.791,127.846,145.152,113.464,131.504,112.468z"/><path fill="#D4A071" d="M133.419,233.027c0,4.67-11.49,3.869-25.661,3.869c-14.172,0-25.661,0.799-25.661-3.869  s11.489-8.452,25.661-8.452C121.929,224.575,133.419,228.359,133.419,233.027z"/><path fill="#D4A071" d="M184,233.027c0,4.67-11.49,3.869-25.661,3.869c-14.173,0-25.663,0.799-25.663-3.869  s11.49-8.452,25.663-8.452C172.51,224.575,184,228.359,184,233.027z"/><path fill="#BF8C69" d="M66.109,118.99c0,0-29.072,23.944-17.689,67.278c0,0-56.594-30.072-28.472-78.986  c0,0-52.014,57.06,50.618,106.967l1.563-3.821C72.128,210.428,43.965,159.046,66.109,118.99z"/><path fill="#BF8C69" d="M188.787,118.99c0,0,29.072,23.944,17.689,67.278c0,0,56.594-30.072,28.473-78.986  c0,0,52.014,57.06-50.618,106.967l-1.563-3.821C182.77,210.428,210.932,159.046,188.787,118.99z"/><path opacity="0.15" fill="#6E6E96" enable-background="new    " d="M157.782,49.323c-12.302,0-23.171,7.066-29.779,17.882  c-6.608-10.815-17.479-17.882-29.778-17.882c-20.147,0-36.48,18.939-36.48,42.302c0,23.362,16.333,42.3,36.48,42.3  c2.17,0,4.292-0.231,6.358-0.651c-0.096,0-0.189,0.01-0.286,0.01c-16.594,0-30.046-15.598-30.046-34.839  c0-19.242,13.452-34.84,30.046-34.84c10.129,0,19.083,5.821,24.525,14.728c5.443-8.908,14.395-14.728,24.525-14.728  c16.594,0,30.045,15.599,30.045,34.84c0,19.241-13.453,34.841-30.045,34.841c-0.854,0-1.697-0.057-2.535-0.139  c2.256,0.508,4.586,0.779,6.97,0.779c20.146,0,36.479-18.939,36.479-42.301C194.262,68.262,177.93,49.323,157.782,49.323z"/><ellipse fill="#FFFFFF" cx="164.086" cy="107.267" rx="6" ry="8.5"/><ellipse fill="#FFFFFF" cx="92.086" cy="107.267" rx="6" ry="8.5"/></svg>