<?xml version="1.0" ?><!DOCTYPE svg  PUBLIC '-//W3C//DTD SVG 1.1//EN'  'http://www.w3.org/Graphics/SVG/1.1/DTD/svg11.dtd'><svg xmlns="http://www.w3.org/2000/svg" xmlns:xlink="http://www.w3.org/1999/xlink" version="1.1" id="Layer_1" width="251.378" height="252.434" viewBox="0 0 251.378 252.434" overflow="visible" enable-background="new 0 0 251.378 252.434" xml:space="preserve"><path fill="#FF9EB1" d="M98.098,46.364c0,0,15.712-4.927,19.491-27.89c3.723-22.619,14.922-8.596,14.922-1.212  c0-11.902-0.774,25.398,20.869,27.382"/><path opacity="0.14" fill="#782E2E" enable-background="new    " d="M117.58,28.364c0,0,9.609,6.854,9.609-3.146  s-2.528-16.566-2.528-16.566s5.907,0.392,9.028,14.066s6.708,14.392,6.708,14.392l-26.824-0.717L117.58,28.364z"/><path fill="#F0F0FF" d="M195.666,158.592c0.319,7.031,13.75,21.494,30.021,32.896c13.652,9.569,22.506-17.536,21.633-36.778  c-0.877-19.242-11.656-43.486-24.801-32.899C204.962,135.948,195.477,154.417,195.666,158.592z"/><path fill="#F0F0FF" d="M54.692,156.638c-0.316,7.426-13.571,22.699-29.633,34.741c-13.477,10.104-21.862-18.521-20.998-38.843  c0.864-20.319,11.152-45.922,24.126-34.741C45.517,132.728,54.879,152.229,54.692,156.638z"/><path fill="#FF9EB1" d="M66.76,73.15C63,77.893,71.114,68.196,66.76,73.15L54.241,92.665c-13.84,23.286-26.036,53.36-26.036,68.274  c0,27.6,9.998,50.364,28.912,65.84c17.313,14.166,41.102,21.653,68.792,21.653s51.479-7.487,68.792-21.653  c18.916-15.476,28.913-38.24,28.913-65.84c0-21.275-20.92-59.553-28.211-72.506c-17.149-30.473-37.87-50.768-73.495-50.768  C92.881,37.667,81.849,54.11,66.76,73.15z"/><path opacity="0.14" fill="#782E2E" enable-background="new    " d="M196.07,89.435c-11.41-20.275-24.41-36.035-42.32-44.319  c10.766,7.627,19.248,19.036,26.883,32.923c6.086,11.065,23.543,43.766,23.543,61.941c0,23.577-8.344,43.026-24.131,56.246  c-14.446,12.104-34.299,18.499-57.407,18.499s-42.961-6.396-57.409-18.499C49.443,183.006,41.1,163.557,41.1,139.98  c0-12.741,10.178-38.434,21.728-58.328l5.093-8.127c-0.165,0.208-0.328,0.416-0.494,0.625c-1.424,1.796-1.144,1.521-0.484,0.755  L54.907,93.665c-13.84,23.286-26.036,53.36-26.036,68.274c0,27.6,9.998,50.364,28.912,65.84  c17.313,14.166,41.102,21.653,68.792,21.653c27.688,0,51.479-7.487,68.791-21.653c18.916-15.476,28.913-38.24,28.913-65.84  C224.281,140.664,203.361,102.388,196.07,89.435z"/><g><ellipse fill="#6E6E96" cx="98.935" cy="119.722" rx="8.519" ry="12.789"/></g><g><ellipse fill="#6E6E96" cx="160.353" cy="119.244" rx="8.836" ry="13.268"/></g><path opacity="0.15" fill="#6E6E96" enable-background="new    " d="M6.881,163.245c0,0,8.293,25.271,21.338,6.972  c0,0-2.03,4,2.97,16C31.189,186.217,6.881,209.774,6.881,163.245z"/><path opacity="0.15" fill="#6E6E96" enable-background="new    " d="M223.189,171.717c0,0,6.5,13.5,21-1c0,0-5.5,31.5-24,17.5  L223.189,171.717z"/><path opacity="0.24" fill="#FFFFFF" enable-background="new    " d="M173.189,148.717c0,3.59-6.044,3-13.5,3s-13.5,0.59-13.5-3  s6.044-6.5,13.5-6.5S173.189,145.127,173.189,148.717z"/><path opacity="0.24" fill="#FFFFFF" enable-background="new    " d="M112.137,148.717c0,3.59-6.044,3-13.5,3  c-7.456,0-13.5,0.59-13.5-3s6.044-6.5,13.5-6.5C106.093,142.217,112.137,145.127,112.137,148.717z"/><line fill="none" stroke="#6E6E96" stroke-width="5" stroke-linecap="round" stroke-linejoin="round" x1="117.689" y1="187.717" x2="144.189" y2="187.717"/></svg>