<?xml version="1.0" ?><!DOCTYPE svg  PUBLIC '-//W3C//DTD SVG 1.1//EN'  'http://www.w3.org/Graphics/SVG/1.1/DTD/svg11.dtd'><svg xmlns="http://www.w3.org/2000/svg" xmlns:xlink="http://www.w3.org/1999/xlink" version="1.1" id="Layer_1" width="150.879" height="254.469" viewBox="0 0 150.879 254.469" overflow="visible" enable-background="new 0 0 150.879 254.469" xml:space="preserve"><path fill="#E8B787" d="M28.595,57.23c-4.314-10.362-6.188-24.781-1.904-44.663c0,0,2.668-11.85,10.229-5.891  c16.351,12.886,34.149,26.801,29.637,64.296l-12.452,11.1C54.104,82.071,36.866,77.104,28.595,57.23z"/><path opacity="0.33" fill="#805B37" enable-background="new    " d="M37.304,33.107c0,0,4.343-22.048,34.113,42.24l-8.721,9.705  C62.697,85.052,31.638,79.424,37.304,33.107z"/><path fill="#E8B787" d="M124.611,57.23c4.315-10.362,6.188-24.781,1.904-44.663c0,0-2.666-11.85-10.229-5.891  c-16.35,12.886-34.148,26.801-29.635,64.296l12.449,11.099C99.104,82.071,116.342,77.104,124.611,57.23z"/><path opacity="0.33" fill="#805B37" enable-background="new    " d="M115.904,33.107c0,0-4.342-22.048-34.114,42.24l8.722,9.705  C90.51,85.052,121.57,79.424,115.904,33.107z"/><path fill="#B0875D" d="M121.38,210.529c0,22.61-9.677,40.94-41.001,40.94c-34.379,0-41-18.33-41-40.94s18.357-40.939,41-40.939  C103.025,169.588,121.38,187.917,121.38,210.529z"/><path fill="#E8B787" d="M132.994,212.993l0.695-16.999v-3.004c0-23.847,11.054-52.097,11.054-52.097l-0.013-0.013  c2.494-6.505,3.867-13.484,3.867-20.755c0-35.053-31.475-63.467-70.299-63.467C39.473,56.661,8,85.075,8,120.127  c0,7.518,1.457,14.726,4.114,21.417l-0.12,0.118c0,0,9.644,24.649,10.914,47.337v23.994c0,0-2.394,26.021,54.697,26.021  C134.695,239.016,132.994,212.993,132.994,212.993z"/><path fill="#F0F0FF" d="M79.052,137.663c17.354,0,32.673,3.942,41.871,11.546c3.041-5.237,4.196-10.492,4.813-17.204  c3.048-33.079-12.842-46.204-29.303-41.792c-12.705,3.406-18.091,15.653-18.091,15.653s-8.41-16.662-22.025-15.653  c-22.277,2.051-28.195,23.837-24.383,41.792c1.909,8.999,4.309,16.498,4.309,16.498C45.319,140.448,61.095,137.663,79.052,137.663z"/><ellipse fill="#FFD863" cx="77.383" cy="204.023" rx="64.389" ry="36.827"/><path opacity="0.15" fill="#BF5F00" enable-background="new    " d="M125,179.233c5.212,3.97,8.219,8.632,8.219,13.624  c0,14.433-25.117,26.137-56.104,26.137c-30.985,0-56.104-11.705-56.104-26.138c0-4.232,2.172-8.226,6.006-11.761  c-8.768,6.291-14.021,14.256-14.021,22.927c0,20.341,28.828,36.828,64.388,36.828c35.562,0,64.39-16.487,64.39-36.828  C141.771,194.475,135.417,185.777,125,179.233z"/><path fill="#6E6E96" d="M94.211,121.775c-3.675,0-6.654,5.324-6.654,11.893c0,0.857,0.055,1.693,0.15,2.501  c4.396,0.477,8.609,1.266,12.578,2.333c0.369-1.479,0.578-3.111,0.578-4.834C100.863,127.099,97.887,121.775,94.211,121.775z   M63.89,121.775c-3.674,0-6.653,5.324-6.653,11.893c0,1.52,0.166,2.966,0.456,4.302c4.031-0.965,8.292-1.65,12.725-2.016  c0.081-0.741,0.125-1.503,0.125-2.286C70.543,127.099,67.564,121.775,63.89,121.775z"/><path opacity="0.15" fill="#6E6E96" enable-background="new    " d="M56.319,103.713c13.616-1.008,22.025,15.652,22.025,15.652  s5.385-12.247,18.09-15.652c13.813-3.702,27.215,4.949,29.373,27.365c2.664-32.389-13.068-45.235-29.373-40.865  c-12.705,3.406-18.09,15.652-18.09,15.652s-8.41-16.661-22.025-15.652c-20.928,1.927-27.417,21.271-24.965,38.493  C33.25,116.115,40.825,105.139,56.319,103.713z"/><path fill="#8A6541" d="M58.723,208.177c3.745,6.817,1.678,12.891-4.618,13.566c-6.296,0.675-14.438-4.302-18.184-11.12  c-3.747-6.816-1.68-12.891,4.618-13.566C46.836,196.38,54.977,201.36,58.723,208.177z"/><path fill="#8A6541" d="M96.621,208.177c-3.746,6.817-1.68,12.891,4.617,13.566c6.297,0.675,14.438-4.302,18.183-11.12  c3.747-6.816,1.681-12.891-4.618-13.566C108.507,196.38,100.367,201.36,96.621,208.177z"/><path opacity="0.15" fill="#805B37" enable-background="new    " d="M94.984,61.03c0,0,67.531,19.205,29.455,100.705  c0,0-44-27.5-88.194,0c0,0-10.67,9.897-11.715,18.214c0,0,52.41-32.714,109.41,5.786c0,0,4.49-26.184,10.804-44.84  S152.906,70.232,94.984,61.03z"/><g><path fill="#FFFFFF" d="M111.232,115.677c3.313,0,6,3.806,6,8.5c0,4.695-2.688,8.5-6,8.5c-3.314,0-3-3.805-3-8.5   S107.917,115.677,111.232,115.677z"/></g></svg>