<?xml version="1.0" ?><!DOCTYPE svg  PUBLIC '-//W3C//DTD SVG 1.1//EN'  'http://www.w3.org/Graphics/SVG/1.1/DTD/svg11.dtd'><svg xmlns="http://www.w3.org/2000/svg" xmlns:xlink="http://www.w3.org/1999/xlink" version="1.1" id="Layer_1" width="249.404" height="249.404" viewBox="0 0 249.404 249.404" overflow="visible" enable-background="new 0 0 249.404 249.404" xml:space="preserve"><polygon fill="#EBB781" points="229.295,152.603 245.404,124.702 229.17,96.583 229.098,64.118 201.162,48.072 185.053,20.17   152.586,20.17 124.434,4 96.569,20.17 64.351,20.17 48.117,48.288 20.038,64.583 20.109,96.8 4,124.702 20.233,152.819   20.306,185.286 48.243,201.333 64.351,229.233 96.817,229.233 124.971,245.404 152.836,229.233 185.053,229.233 201.285,201.117   229.367,184.821 "/><ellipse fill="#6E6E96" cx="126.785" cy="185.386" rx="22.028" ry="15.146"/><path fill="#FAE8B2" d="M200.798,115.234c0,42.367-34.344,76.711-76.71,76.711c-42.365,0-76.71-34.345-76.71-76.711  s34.345-69.663,76.71-69.663C166.454,45.571,200.798,72.868,200.798,115.234z"/><path opacity="0.27" fill="#EBB781" d="M81.055,59.97c0,0-18.117,7.27-22.908,46.622c-4.791,39.351,20.258,1.61,64.055,1.61  c43.796,0,71.336,30.388,71.336-2.162c0-32.551-11.96-38.936-22.351-46.07c0,0,47.456,21.172,22.592,90.116  c0,0-24.019-27.365-67.508-27.365s-64.808,19.587-68.986,34.781C57.286,157.503,23.212,82.563,81.055,59.97z"/><g opacity="0.13"><path d="M197.269,173.028c0,18.708-18.538,33.877-41.405,33.877c-11.553,0-21.997-3.875-29.507-10.119   c-7.511,6.244-17.954,10.119-29.507,10.119c-22.868,0-41.405-15.169-41.405-33.877c0,0-4.989-47.17,71.27-47.17   C202.978,125.858,197.269,173.028,197.269,173.028z"/><path fill="none" stroke="#000000" stroke-width="3" d="M197.269,173.028c0,18.708-18.538,33.877-41.405,33.877   c-11.553,0-21.997-3.875-29.507-10.119c-7.511,6.244-17.954,10.119-29.507,10.119c-22.868,0-41.405-15.169-41.405-33.877   c0,0-4.989-47.17,71.27-47.17C202.978,125.858,197.269,173.028,197.269,173.028z"/></g><path fill="#F0F0FF" d="M197.269,166.655c0,18.709-18.538,33.877-41.405,33.877c-11.553,0-21.997-3.875-29.507-10.118  c-7.511,6.243-17.954,10.118-29.507,10.118c-22.868,0-41.405-15.168-41.405-33.877c0,0-4.989-47.169,71.27-47.169  C202.978,119.486,197.269,166.655,197.269,166.655z"/><path fill="#6E6E96" d="M141.67,139.581c0,8.37-8.097,15.158-18.082,15.158s-18.081-6.788-18.081-15.158  c0-8.374,8.097-8.164,18.081-8.164C133.573,131.417,141.67,131.207,141.67,139.581z"/><g opacity="0.3"><circle fill="#6E6E96" cx="74.481" cy="172.451" r="6.663"/><circle fill="#6E6E96" cx="90.186" cy="155.794" r="3.331"/><circle fill="#6E6E96" cx="98.752" cy="185.301" r="5.235"/></g><g opacity="0.3"><circle fill="#6E6E96" cx="180.611" cy="172.451" r="6.662"/><circle fill="#6E6E96" cx="164.905" cy="155.794" r="3.331"/><circle fill="#6E6E96" cx="156.341" cy="185.301" r="5.234"/></g><ellipse fill="#6E6E96" cx="93.406" cy="98.709" rx="7.508" ry="10.693"/><ellipse fill="#6E6E96" cx="156.845" cy="98.709" rx="7.507" ry="10.693"/><path opacity="0.15" fill="#6E6E96" enable-background="new    " d="M245.404,124.702L229.17,96.583l-0.07-32.465l-27.938-16.046  L185.054,20.17h-32.469L124.435,4L96.57,20.17H64.351L48.117,48.288L20.038,64.583l0.071,32.218L4,124.702l16.233,28.117  l0.073,32.467l27.937,16.047l16.108,27.9h32.466l28.154,16.171l27.863-16.171h32.219l16.23-28.116l28.082-16.296l-0.072-32.218  L245.404,124.702z M191.582,184.097l-14.526,25.166h-28.839l-24.939,14.474l-25.2-14.474H69.018L54.6,184.29l-25.005-14.362  l-0.065-29.061L15,115.701l14.419-24.975l-9.381-26.146l34.449-17.273L69.018,22.14h28.837l24.94-14.475l25.197,14.474l37.062-1.971  l6.418,26.944l25.006,14.362l0.063,29.058l14.53,25.168l-14.418,24.973l0.063,28.838L191.582,184.097z"/><path opacity="0.15" fill="#6E6E96" enable-background="new    " d="M156.786,122.783c27.435,10.176,24.68,32.992,24.68,32.992  c0,14.99-14.854,27.144-33.177,27.144c-9.257,0-17.625-3.104-23.642-8.106c-6.019,5.003-14.386,8.106-23.644,8.106  c-18.321,0-33.175-12.152-33.175-27.144c0,0-2.101-19.937,20.158-30.849c-36.245,12.372-33.146,41.781-33.146,41.781  c0,18.709,18.537,33.877,41.404,33.877c11.553,0,21.996-3.875,29.507-10.118c7.511,6.243,17.954,10.118,29.508,10.118  c22.866,0,41.404-15.168,41.404-33.877C196.666,166.709,200.684,133.437,156.786,122.783z"/></svg>