<?xml version="1.0" ?><!DOCTYPE svg  PUBLIC '-//W3C//DTD SVG 1.1//EN'  'http://www.w3.org/Graphics/SVG/1.1/DTD/svg11.dtd'><svg xmlns="http://www.w3.org/2000/svg" xmlns:xlink="http://www.w3.org/1999/xlink" version="1.1" id="Layer_1" width="246.925" height="240.494" viewBox="0 0 246.925 240.494" overflow="visible" enable-background="new 0 0 246.925 240.494" xml:space="preserve"><path fill="#FFDCA8" d="M203.132,63.454c19.808,0,35.865,13.143,35.865,32.95c0,19.808-16.06,38.781-35.865,38.781  c-19.807,0-35.863-16.059-35.863-35.867C167.269,79.511,183.326,63.454,203.132,63.454z"/><path fill="#FFDCA8" d="M42.984,63.453c19.913,0,36.056,16.143,36.056,36.056c0,19.913-16.143,36.056-36.056,36.056  S6.928,116.507,6.928,96.595C6.928,76.682,23.071,63.453,42.984,63.453z"/><path fill="#E6BA8C" d="M34.254,78.955c0,0-27.441,13.496-7.49,42.19l-5.452,6.115c0,0-39.042-45.462,15.764-63.406L34.254,78.955z"/><path fill="#E6BA8C" d="M214.794,82.26c0,0,17.904,5.896,6.985,35.767l5.743,6.222c0,0,19.279-19.573,7.623-42.399  c-11.654-22.826-25.254-16.998-25.254-16.998L214.794,82.26z"/><path fill="#E6BA8C" d="M210.153,112.492c1.673-6.792,2.565-13.889,2.565-21.197c0-48.8-31.396-88.36-88.359-88.36  c-57.263,0-88.36,39.56-88.36,88.36c0,8.135,1.105,16.011,3.163,23.491c-15.33,9.279-24.684,22.648-24.684,41.219  c0,44.471,49.431,80.521,110.406,80.521c60.979,0,110.408-36.051,110.408-80.521C235.292,135.847,225.998,121.812,210.153,112.492z"/><g><path fill="#FFDCA8" d="M220.728,159.935c0-15.156-7.841-28.547-19.826-36.646c2.014-44.395-2.385-104.733-74.888-104.733   c-65.264,0-81.306,55.429-74.944,104.067c-12.552,8.021-20.83,21.735-20.83,37.313c0,0,12.528,52.879,94.644,52.879   C208.892,212.813,220.728,159.935,220.728,159.935z"/></g><path fill="#F0F0FF" d="M126.425,108.622c20.289,0,39.119,3.377,54.676,9.148c1.885-6.111,2.943-12.879,2.943-20.013  c0-27-15.035-48.888-33.578-48.888c-9.428,0-17.94,5.663-24.041,14.77c-6.096-9.107-14.611-14.77-24.038-14.77  c-18.544,0-33.579,21.887-33.579,48.888c0,7.133,1.059,13.902,2.944,20.013C87.31,111.999,106.138,108.622,126.425,108.622z"/><g><path fill="#6E6E96" d="M172.123,171.741c-10.029,7.998-26.896,12.771-45.121,12.771c-18.224,0-35.09-4.773-45.122-12.771l0,0   c-1.677-1.34-4.122-1.064-5.46,0.613c-1.338,1.676-1.063,4.123,0.615,5.459l0,0c11.361,9.062,30.04,14.472,49.966,14.472   c19.929,0,38.605-5.41,49.967-14.472l0,0c1.677-1.338,1.951-3.781,0.613-5.459S173.798,170.401,172.123,171.741L172.123,171.741z"/></g><g><path fill="#6E6E96" d="M141.943,81.408c-4.426,0-8.013,7.709-8.013,17.219c0,4.226,0.711,8.091,1.886,11.088   c4.063,0.156,8.038,0.433,11.907,0.819c1.38-3.093,2.231-7.283,2.231-11.907C149.957,89.117,146.369,81.408,141.943,81.408z    M114.4,81.408c-4.425,0-8.013,7.709-8.013,17.219c0,4.605,0.846,8.777,2.217,11.867c3.877-0.377,7.858-0.645,11.929-0.792   c1.172-2.994,1.881-6.854,1.881-11.074C122.413,89.117,118.826,81.408,114.4,81.408z"/></g><path opacity="0.37" fill="#FFFFFF" enable-background="new    " d="M148.703,130.87c0,4.462-9.24,3.555-20.641,3.555  c-11.4,0-20.641,0.907-20.641-3.555c0-4.465,9.241-8.082,20.641-8.082C139.462,122.788,148.703,126.405,148.703,130.87z"/><g><path fill="#FFFFFF" d="M164.653,85.363c3.313,0,6,3.806,6,8.5c0,4.694-2.687,8.5-6,8.5s-4-3.806-4-8.5   C160.653,89.169,161.337,85.363,164.653,85.363z"/></g><g><ellipse fill="#FFFFFF" cx="88.668" cy="92.3" rx="6" ry="8.5"/></g></svg>