<?xml version="1.0" ?><!DOCTYPE svg  PUBLIC '-//W3C//DTD SVG 1.1//EN'  'http://www.w3.org/Graphics/SVG/1.1/DTD/svg11.dtd'><svg xmlns="http://www.w3.org/2000/svg" xmlns:xlink="http://www.w3.org/1999/xlink" version="1.1" id="Layer_1" width="250.121" height="241.379" viewBox="0 0 250.121 241.379" overflow="visible" enable-background="new 0 0 250.121 241.379" xml:space="preserve"><circle fill="#F0D278" cx="202.693" cy="47.426" r="43.426"/><circle fill="#F0D278" cx="46.855" cy="49.945" r="42.855"/><circle opacity="0.19" fill="#D16F6F" enable-background="new    " cx="53.083" cy="55.349" r="37.664"/><circle opacity="0.19" fill="#D16F6F" enable-background="new    " cx="199.583" cy="55.349" r="37.664"/><path fill="#F0D278" d="M241.316,108.114c0,31.561-12.789,43.123-33.465,67.544c-20.691,24.439-17.264,61.724-80.875,61.724  c-68.389,0-55.833-34.87-76.042-56.313c-23.499-24.932-38.297-39.004-38.297-72.955C12.639,44.966,63.831,4.28,126.977,4.28  C190.124,4.28,241.316,44.966,241.316,108.114z"/><ellipse fill="#6E6E96" cx="94.248" cy="88.89" rx="10.604" ry="15.625"/><ellipse fill="#6E6E96" cx="158.382" cy="88.89" rx="10.604" ry="15.627"/><path fill="#6E6E96" d="M38.983,123.072c-1.887-4.187-11.366-4-21.172,0.416c-1.278,0.576-2.494,1.195-3.647,1.849  c1.093,5.634,2.762,10.673,4.94,15.392c1.802-0.535,3.664-1.226,5.541-2.068C34.451,134.238,40.87,127.26,38.983,123.072z   M39.526,145.333c-1.482-3.287-8.922-3.144-16.621,0.326c-0.344,0.155-0.676,0.319-1.009,0.481c2.143,3.744,4.636,7.334,7.438,10.92  C36.424,153.583,40.938,148.465,39.526,145.333z"/><path fill="#6E6E96" d="M216.15,145.333c-1.277,2.834,2.295,7.291,8.231,10.69c2.832-3.604,5.347-7.119,7.517-10.733  C224.518,142.195,217.576,142.168,216.15,145.333z M237.866,123.488c-9.806-4.417-19.285-4.603-21.173-0.416  c-1.887,4.188,4.531,11.166,14.338,15.587c1.236,0.557,2.468,1.045,3.679,1.469c2.328-4.756,4.076-9.844,5.188-15.655  C239.236,124.131,238.563,123.803,237.866,123.488z"/><path opacity="0.19" fill="#D16F6F" enable-background="new    " d="M127.977,3.28C64.831,3.28,13.64,43.966,13.64,107.114  c0,33.951,14.798,48.023,38.297,72.955c20.207,21.443,7.653,56.313,76.042,56.313c63.611,0,60.184-37.284,80.875-61.724  c20.676-24.422,33.465-35.983,33.465-67.544C242.316,43.966,191.124,3.28,127.977,3.28z M121.356,210.189  c-4.446,0-8.486-0.176-12.174-0.508c7.509-1.379,14.213-4.945,19.364-10c3.798,3.728,8.438,6.646,13.625,8.479  C136.34,209.461,129.494,210.189,121.356,210.189z M190.477,156.725c-0.357,0.428-0.705,0.861-1.045,1.299  c-4.807-14.401-19.056-32.908-60.563-32.908c-67.945,0-63.499,49.59-63.499,49.59c0,0.591,0.017,1.177,0.046,1.761  c-2.29-5.305-4.835-10.524-9.046-15.053c-20.083-21.597-32.73-33.785-32.73-63.193c0-54.698,43.75-89.94,97.717-89.94  c53.969,0,97.719,35.242,97.719,89.94C219.075,125.557,208.146,135.572,190.477,156.725z"/><path fill="#F0F0FF" d="M191.723,167.139c0,16.666-16.516,30.18-36.889,30.18c-10.294,0-19.598-3.45-26.288-9.014  c-6.69,5.563-15.995,9.014-26.29,9.014c-20.373,0-36.887-13.514-36.887-30.18c0,0-4.446-42.023,63.499-42.023  C196.813,125.115,191.723,167.139,191.723,167.139z"/><path fill="#6E6E96" d="M143.195,143.6c0,8.018-6.498,14.516-14.516,14.516s-14.516-6.498-14.516-14.516  c0-8.016,6.498-8.947,14.516-8.947S143.195,135.584,143.195,143.6z"/><path opacity="0.15" fill="#6E6E96" enable-background="new    " d="M128.232,124.705c-0.199,0-0.392,0.005-0.59,0.006  c60.433,0.245,55.895,30.959,55.895,30.959c0,12.282-14.876,22.239-33.227,22.239c-9.271,0-17.651-2.544-23.679-6.642  c-6.025,4.098-14.407,6.642-23.68,6.642c-18.35,0-33.224-9.957-33.224-22.239c0,0-0.827-6.413,4.036-13.4  c-10.393,11.52-9.03,24.459-9.03,24.459c0,16.668,16.514,30.182,36.887,30.182c10.295,0,19.6-3.451,26.29-9.014  c6.69,5.563,15.993,9.014,26.288,9.014c20.373,0,36.889-13.514,36.889-30.182C191.088,166.729,196.178,124.705,128.232,124.705z"/><g><line fill="none" stroke="#878796" stroke-width="5" stroke-linecap="round" stroke-linejoin="round" x1="192.393" y1="165.063" x2="233.166" y2="164.949"/><line fill="none" stroke="#878796" stroke-width="5" stroke-linecap="round" stroke-linejoin="round" x1="192.122" y1="175.926" x2="227.188" y2="185.336"/><line fill="none" stroke="#878796" stroke-width="5" stroke-linecap="round" stroke-linejoin="round" x1="186.867" y1="186.02" x2="226.229" y2="205.326"/></g><g><line fill="none" stroke="#878796" stroke-width="5" stroke-linecap="round" stroke-linejoin="round" x1="65.199" y1="166.962" x2="24.492" y2="164.632"/><line fill="none" stroke="#878796" stroke-width="5" stroke-linecap="round" stroke-linejoin="round" x1="64.879" y1="177.826" x2="29.354" y2="185.316"/><line fill="none" stroke="#878796" stroke-width="5" stroke-linecap="round" stroke-linejoin="round" x1="69.577" y1="188.189" x2="29.223" y2="205.326"/></g></svg>